<svg width="24" height="24" viewBox="0 0 24 24" fill="none" xmlns="http://www.w3.org/2000/svg">
<g id="Group">
<path id="Vector" d="M18 14.5715C17.9999 16.0093 17.6382 17.4239 16.948 18.6852C16.2579 19.9465 15.2616 21.014 14.0507 21.7893C12.8399 22.5646 11.4535 23.0229 10.0192 23.122C8.58481 23.221 7.14857 22.9577 5.84267 22.3562C4.53676 21.7547 3.40314 20.8343 2.54616 19.6799C1.68919 18.5254 1.13638 17.1739 0.938635 15.7498C0.74089 14.3257 0.904558 12.8747 1.41457 11.5304C1.92459 10.1861 2.76456 8.99175 3.85718 8.05719" stroke="#EFEFFF" stroke-linecap="round" stroke-linejoin="round"/>
<path id="Vector_2" d="M9.05146 11.4C8.87029 11.7741 8.7765 12.1844 8.77717 12.6C8.77489 12.9451 8.84118 13.2872 8.97219 13.6064C9.10319 13.9257 9.2963 14.2157 9.54031 14.4597C9.78432 14.7037 10.0744 14.8969 10.3936 15.0279C10.7129 15.1589 11.055 15.2252 11.4 15.2229C11.7501 15.2229 12.0859 15.3619 12.3334 15.6095C12.581 15.857 12.72 16.1928 12.72 16.5429V22.4914M0.977173 15.8915H4.1486C4.50102 15.8823 4.8517 15.9438 5.17996 16.0724C5.50821 16.2009 5.80739 16.394 6.05985 16.64C6.31231 16.8861 6.51292 17.1802 6.64986 17.5051C6.7868 17.8299 6.85729 18.1789 6.85717 18.5315V22.7315M22.7315 3.20574L21.0172 2.62288C20.8967 2.58195 20.7661 2.58158 20.6454 2.62182C20.5247 2.66206 20.4204 2.7407 20.3486 2.84574L19.0972 4.78288L12.24 1.35431C11.6981 1.03491 11.0922 0.839253 10.4658 0.781323C9.83946 0.723392 9.20801 0.804625 8.61668 1.01921C8.02535 1.23379 7.48875 1.57642 7.04529 2.02258C6.60182 2.46874 6.26245 3.0074 6.05146 3.60002C5.99331 3.75376 5.96832 3.91806 5.97815 4.08214C5.98798 4.24621 6.03239 4.40635 6.10848 4.55205C6.18457 4.69775 6.29061 4.82571 6.41964 4.92754C6.54867 5.02936 6.69778 5.10275 6.85717 5.14288L11.3315 6.58288L11.7772 6.73716L12.6172 9.61716C12.6442 9.71745 12.696 9.8093 12.7679 9.88421C12.8398 9.95913 12.9295 10.0147 13.0286 10.0457L15.0515 10.6972C15.1547 10.7308 15.2649 10.7374 15.3714 10.7162C15.478 10.6951 15.5773 10.6469 15.6599 10.5764C15.7425 10.5058 15.8056 10.4153 15.8431 10.3133C15.8807 10.2114 15.8914 10.1016 15.8743 9.99431L15.4286 7.85145H15.72L20.0915 9.27431C20.3779 9.37306 20.6918 9.3546 20.9648 9.22295C21.2377 9.0913 21.4476 8.85713 21.5486 8.57145L23.0915 3.82288C23.1084 3.69465 23.0823 3.56441 23.0171 3.45268C22.9519 3.34095 22.8514 3.25407 22.7315 3.20574Z" stroke="#EFEFFF" stroke-linecap="round" stroke-linejoin="round"/>
</g>
</svg>
