<svg width="24" height="24" viewBox="0 0 24 24" fill="none" xmlns="http://www.w3.org/2000/svg">
<g id="Belleza">
<path id="Vector" d="M16.6948 3.1987H13.3584C12.7555 3.20062 12.778 4.09918 13.3584 4.0939H16.6948V4.55326H13.3584C12.7588 4.54798 12.7809 5.44606 13.3584 5.44846H16.6948V5.9179H13.3584C12.7588 5.9179 12.7809 6.8155 13.3584 6.8131H16.6948V7.26046H13.3584C12.7713 7.26478 12.7809 8.16334 13.3584 8.16622H16.6948V8.61454H13.3584C12.7713 8.61262 12.7689 9.50974 13.3584 9.50974H16.6948V9.9571H13.3584C12.7713 9.95902 12.7689 10.8571 13.3584 10.8528H16.6948V11.3112H13.3584C12.7713 11.3059 12.7689 12.203 13.3584 12.2064H16.6948V12.6528H13.3584C12.7713 12.6523 12.7809 13.5513 13.3584 13.5485H16.6948V22.2648C16.6968 23.5929 18.7142 23.5689 18.72 22.2648V1.86718C18.7142 1.26046 18.216 0.49342 17.3961 0.49102H13.3584C12.7555 0.4915 12.778 1.39006 13.3584 1.38622L16.6948 1.39726V1.84366H13.3584C12.7564 1.84078 12.779 2.73886 13.3584 2.73934H16.6948V3.1987ZM13.1289 18.6518C13.127 17.1014 11.52 15.4339 9.59996 16.5139V10.584L8.3582 0.80398C8.33228 0.54526 8.11292 0.4843 7.96556 0.47998C7.8134 0.4843 7.5086 0.54526 7.47548 0.80398L6.23996 10.584V16.5139C4.31996 15.4339 2.76476 17.112 2.76428 18.6398C2.76476 19.9992 3.81116 21.1157 5.22716 21.1123C6.65372 21.1157 7.67996 19.8643 7.67996 18.6398V12.48H8.15996V18.6398C8.15996 20.0107 9.22172 21.0254 10.4016 21.0897C10.3819 21.8414 10.6272 22.9137 11.0889 23.339C11.6304 23.8382 12.275 23.1998 12.0105 22.68C11.7552 22.1961 11.5046 21.9096 11.7081 20.8531C12.5587 20.4595 13.127 19.631 13.1289 18.6518ZM5.28188 19.8715C4.95821 19.8715 4.6478 19.7429 4.41893 19.5141C4.19006 19.2852 4.06148 18.9748 4.06148 18.6511C4.06148 18.3274 4.19006 18.017 4.41893 17.7881C4.6478 17.5593 4.95821 17.4307 5.28188 17.4307C5.94716 17.4345 6.48908 17.9803 6.49388 18.6518C6.49251 18.9736 6.36462 19.2818 6.13784 19.51C5.91106 19.7383 5.6036 19.8681 5.28188 19.8715ZM9.39596 18.6518C9.39708 18.3298 9.52491 18.0212 9.75181 17.7926C9.97871 17.5641 10.2864 17.4341 10.6084 17.4307C10.9306 17.4336 11.2385 17.5635 11.4655 17.7921C11.6924 18.0208 11.82 18.3297 11.8204 18.6518C11.8199 18.9738 11.6923 19.2826 11.4654 19.511C11.2384 19.7394 10.9304 19.869 10.6084 19.8715C10.2865 19.8686 9.97872 19.7389 9.75176 19.5106C9.5248 19.2823 9.39696 18.9737 9.39596 18.6518Z" fill="#EFEFFF"/>
</g>
</svg>
