<svg width="30" height="30" viewBox="0 0 30 30" fill="none" xmlns="http://www.w3.org/2000/svg">
<g id="Group">
<path id="Vector" d="M10.6233 5.68009C9.17335 5.73592 7.86252 6.25342 7.16168 6.95509C7.08426 7.03246 6.99235 7.09382 6.89121 7.13567C6.79007 7.17752 6.68168 7.19904 6.57222 7.19901C6.46276 7.19897 6.35439 7.17737 6.25328 7.13545C6.15217 7.09352 6.0603 7.0321 5.98293 6.95467C5.90556 6.87725 5.8442 6.78534 5.80235 6.6842C5.7605 6.58306 5.73898 6.47467 5.73901 6.36521C5.73905 6.25575 5.76065 6.14737 5.80257 6.04626C5.8445 5.94515 5.90592 5.85329 5.98335 5.77592C7.06418 4.69509 8.82418 4.08175 10.5583 4.01425C12.3042 3.94675 14.21 4.42425 15.545 5.75925C15.7013 5.91562 15.789 6.12766 15.7889 6.34872C15.7889 6.56977 15.701 6.78175 15.5446 6.938C15.3882 7.09426 15.1762 7.182 14.9551 7.18192C14.7341 7.18184 14.5221 7.09395 14.3658 6.93759C13.4575 6.02842 12.0625 5.62342 10.6233 5.67925V5.68009Z" fill="#00001D"/>
<path id="Vector_2" fill-rule="evenodd" clip-rule="evenodd" d="M17.82 19.1133C15.8674 20.7657 13.3913 21.6706 10.8333 21.6667C4.85 21.6667 0 16.8167 0 10.8333C0 4.85 4.85 0 10.8333 0C16.8167 0 21.6667 4.85 21.6667 10.8333C21.6667 13.4958 20.7067 15.9333 19.1133 17.82L20.9533 17.5L29.5233 26.07C30.1592 26.7058 30.1592 27.7367 29.5233 28.3717L28.3717 29.5233C27.7358 30.1592 26.705 30.1592 26.07 29.5233L17.5 20.9533L17.82 19.1133ZM20 10.8333C20 15.8958 15.8958 20 10.8333 20C5.77083 20 1.66667 15.8958 1.66667 10.8333C1.66667 5.77083 5.77083 1.66667 10.8333 1.66667C15.8958 1.66667 20 5.77083 20 10.8333ZM26.0408 24.9442L20.3867 19.29L19.4533 19.4525L19.29 20.3867L24.9608 26.0575L26.0408 24.9442ZM26.1392 27.2358L27.2208 28.3175L28.3175 27.2208L27.2192 26.1225L26.1392 27.2358Z" fill="#00001D"/>
</g>
</svg>
