<svg width="24" height="24" viewBox="0 0 24 24" fill="none" xmlns="http://www.w3.org/2000/svg">
<g id="Autos" clip-path="url(#clip0_99_2067)">
<path id="Vector" d="M17.9134 9.52003C16.7147 7.527 15.0663 5.84209 13.1 4.60003C12.214 4.03845 11.2039 3.70232 10.158 3.62098C9.11217 3.53963 8.06228 3.71554 7.10004 4.13336C6.25838 4.53036 5.526 5.12627 4.96616 5.86963C4.40632 6.61299 4.03583 7.48146 3.88671 8.40003C3.83337 8.72669 3.78671 9.06669 3.74671 9.33336H3.08004C2.85161 9.33071 2.62493 9.37342 2.41313 9.45901C2.20133 9.5446 2.00861 9.67136 1.84615 9.83196C1.68369 9.99256 1.55472 10.1838 1.4667 10.3946C1.37867 10.6054 1.33336 10.8316 1.33337 11.06V16.76C1.33337 16.9121 1.39378 17.0579 1.5013 17.1654C1.60882 17.273 1.75465 17.3334 1.90671 17.3334H3.06004V17.0734C3.05834 16.4561 3.20522 15.8474 3.48827 15.2989C3.77132 14.7503 4.18224 14.2779 4.68631 13.9216C5.19037 13.5653 5.77279 13.3355 6.38436 13.2517C6.99593 13.1679 7.61869 13.2325 8.20004 13.44L7.53337 14.1067C7.001 14.0088 6.45213 14.0548 5.94348 14.24C5.43484 14.4251 4.98486 14.7428 4.64004 15.16C4.46225 15.3384 4.31976 15.5488 4.22004 15.78C4.01491 16.177 3.90104 16.6147 3.88675 17.0613C3.87246 17.5079 3.9581 17.9521 4.13744 18.3613C4.31677 18.7706 4.58526 19.1346 4.92329 19.4268C5.26132 19.7191 5.66035 19.9321 6.09125 20.0503C6.52214 20.1686 6.97401 20.1891 7.41384 20.1104C7.85367 20.0316 8.27036 19.8556 8.63347 19.5952C8.99659 19.3348 9.29695 18.9966 9.51262 18.6053C9.72829 18.214 9.85382 17.7794 9.88004 17.3334H13.5334V17.0734C13.5321 16.4569 13.6789 15.8491 13.9616 15.3012C14.2443 14.7534 14.6545 14.2815 15.1577 13.9253C15.6609 13.5692 16.2424 13.3392 16.853 13.2547C17.4637 13.1703 18.0857 13.2338 18.6667 13.44L18 14.1067C17.4677 14.0088 16.9188 14.0548 16.4102 14.24C15.9015 14.4251 15.4515 14.7428 15.1067 15.16C14.9289 15.3384 14.7864 15.5488 14.6867 15.78C14.4844 16.1769 14.373 16.6139 14.3606 17.0592C14.3482 17.5046 14.4352 17.9471 14.6152 18.3546C14.7952 18.7621 15.0637 19.1244 15.4012 19.4152C15.7387 19.706 16.1367 19.918 16.5664 20.0358C16.996 20.1536 17.4465 20.1742 17.8851 20.0961C18.3237 20.0181 18.7394 19.8433 19.1021 19.5845C19.4647 19.3257 19.7652 18.9894 19.9816 18.6001C20.198 18.2107 20.325 17.778 20.3534 17.3334H22.0934C22.2454 17.3334 22.3913 17.273 22.4988 17.1654C22.6063 17.0579 22.6667 16.9121 22.6667 16.76V15.5734C22.6617 14.1791 22.1913 12.8265 21.3302 11.7299C20.4692 10.6333 19.2666 9.85559 17.9134 9.52003ZM8.00004 9.33336H5.33337C5.33337 9.10003 5.40004 8.86003 5.44004 8.62003C5.55203 7.89119 5.84761 7.20282 6.29895 6.61969C6.75029 6.03657 7.34256 5.57785 8.02004 5.28669L8.00004 9.33336ZM6.90671 18.9067C6.57707 18.9067 6.25484 18.8089 5.98076 18.6258C5.70667 18.4427 5.49305 18.1824 5.36691 17.8778C5.24076 17.5733 5.20776 17.2382 5.27207 16.9149C5.33637 16.5916 5.49511 16.2946 5.7282 16.0615C5.96128 15.8284 6.25826 15.6697 6.58156 15.6054C6.90486 15.5411 7.23997 15.5741 7.54451 15.7002C7.84906 15.8264 8.10935 16.04 8.29249 16.3141C8.47563 16.5882 8.57337 16.9104 8.57337 17.24C8.57337 17.6821 8.39778 18.106 8.08522 18.4185C7.77266 18.7311 7.34873 18.9067 6.90671 18.9067ZM12.6667 12.6667H10.6667V11.3334H12.6667V12.6667ZM8.66671 9.33336V4.98003C9.91934 4.80952 11.1922 5.08061 12.2667 5.74669C13.743 6.67473 15.0136 7.89538 16 9.33336H8.66671ZM17.3734 18.9067C17.0437 18.9067 16.7215 18.8089 16.4474 18.6258C16.1733 18.4427 15.9597 18.1824 15.8336 17.8778C15.7074 17.5733 15.6744 17.2382 15.7387 16.9149C15.803 16.5916 15.9618 16.2946 16.1949 16.0615C16.428 15.8284 16.7249 15.6697 17.0482 15.6054C17.3715 15.5411 17.7066 15.5741 18.0112 15.7002C18.3157 15.8264 18.576 16.04 18.7592 16.3141C18.9423 16.5882 19.04 16.9104 19.04 17.24C19.04 17.6821 18.8644 18.106 18.5519 18.4185C18.2393 18.7311 17.8154 18.9067 17.3734 18.9067Z" fill="#EFEFFF"/>
</g>
<defs>
<clipPath id="clip0_99_2067">
<rect width="24" height="24" fill="white"/>
</clipPath>
</defs>
</svg>
