<svg width="35" height="35" viewBox="0 0 35 35" fill="none" xmlns="http://www.w3.org/2000/svg">
<g id="corazon icono">
<path id="Vector" d="M17.5014 5.56786C19.2736 4.01143 21.5817 3.20543 23.9375 3.32037C26.2933 3.43531 28.512 4.46216 30.1242 6.1837C31.7364 7.90525 32.6157 10.1864 32.5761 12.5447C32.5365 14.903 31.581 17.1533 29.9118 18.8197L22.2935 26.4395L17.5 31.2302L6.88329 20.6149L5.08954 18.8183C3.42542 17.1508 2.47429 14.902 2.43693 12.5465C2.39958 10.191 3.27891 7.91311 4.88931 6.1937C6.49972 4.47429 8.7152 3.44787 11.0681 3.3311C13.421 3.21433 15.7272 4.01635 17.5 5.56786H17.5014ZM22.292 22.3168L27.8497 16.7576C28.4224 16.185 28.8766 15.5052 29.1865 14.7571C29.4964 14.0089 29.6559 13.207 29.6559 12.3972C29.6559 11.5874 29.4964 10.7856 29.1865 10.0374C28.8766 9.28923 28.4224 8.60943 27.8497 8.03681C27.2771 7.4642 26.5973 7.00997 25.8492 6.70007C25.101 6.39017 24.2991 6.23067 23.4893 6.23067C22.6795 6.23067 21.8777 6.39017 21.1295 6.70007C20.3813 7.00997 19.7015 7.4642 19.1289 8.03681L17.5 9.66431L15.871 8.03536C14.7145 6.8789 13.1461 6.22921 11.5106 6.22921C9.87511 6.22921 8.30662 6.8789 7.15016 8.03536C5.99371 9.19181 5.34402 10.7603 5.34402 12.3958C5.34402 14.0312 5.99371 15.5997 7.15016 16.7562L8.94683 18.5529L17.5 27.106L22.2906 22.3154L22.292 22.3168Z" fill="#EFEFFF"/>
</g>
</svg>
