<svg width="30" height="30" viewBox="0 0 30 30" fill="none" xmlns="http://www.w3.org/2000/svg">
<g id="cruz-Grande" clip-path="url(#clip0_1_652)">
<path id="Vector" d="M29.7258 24.1007L20.6246 14.9994L29.7258 5.89819C29.9002 5.72166 29.998 5.48352 29.998 5.23538C29.998 4.98724 29.9002 4.74909 29.7258 4.57257L25.4264 0.273191C25.3395 0.185942 25.2362 0.116714 25.1225 0.0694774C25.0087 0.0222406 24.8868 -0.0020752 24.7636 -0.0020752C24.6405 -0.0020752 24.5185 0.0222406 24.4048 0.0694774C24.291 0.116714 24.1877 0.185942 24.1008 0.273191L14.9996 9.37444L5.89831 0.273191C5.72251 0.0974369 5.48409 -0.00129628 5.2355 -0.00129628C4.98691 -0.00129628 4.7485 0.0974369 4.57269 0.273191L0.273313 4.57257C0.186064 4.65949 0.116836 4.76279 0.0695994 4.87653C0.0223627 4.99027 -0.00195313 5.11222 -0.00195313 5.23538C-0.00195313 5.35854 0.0223627 5.48049 0.0695994 5.59423C0.116836 5.70797 0.186064 5.81127 0.273313 5.89819L9.37456 14.9994L0.273313 24.1007C0.097559 24.2765 -0.00117421 24.5149 -0.00117421 24.7635C-0.00117421 25.0121 0.097559 25.2505 0.273313 25.4263L4.57269 29.7257C4.65961 29.8129 4.76291 29.8822 4.87665 29.9294C4.99039 29.9766 5.11234 30.001 5.2355 30.001C5.35866 30.001 5.48061 29.9766 5.59435 29.9294C5.70809 29.8822 5.81139 29.8129 5.89831 29.7257L14.9996 20.6244L24.1008 29.7257C24.2766 29.9014 24.515 30.0002 24.7636 30.0002C25.0122 30.0002 25.2506 29.9014 25.4264 29.7257L29.7258 25.4263C29.8131 25.3394 29.8823 25.2361 29.9295 25.1224C29.9768 25.0086 30.0011 24.8867 30.0011 24.7635C30.0011 24.6403 29.9768 24.5184 29.9295 24.4047C29.8823 24.2909 29.8131 24.1876 29.7258 24.1007Z" fill="#EFEFFF"/>
</g>
<defs>
<clipPath id="clip0_1_652">
<rect width="30" height="30" fill="white"/>
</clipPath>
</defs>
</svg>
