<svg width="24" height="24" viewBox="0 0 24 24" fill="none" xmlns="http://www.w3.org/2000/svg">
<g id="Basquet">
<path id="Vector" d="M2.34 14.63C2.94 14.41 3.56 14.3 4.22 14.3C5.56 14.3 6.73 14.72 7.73 15.56L4.59 18.7C3.54825 17.5264 2.77979 16.1364 2.34 14.63ZM15.56 9.80002C17.53 11.27 19.66 11.63 21.94 10.88C21.97 11.09 22 11.47 22 12C22 13.03 21.75 14.18 21.28 15.45C20.81 16.71 20.23 17.73 19.55 18.5L13.22 12.19L15.56 9.80002ZM8.77 16.64C9.83 18.17 10.05 19.84 9.42 21.66C8 21.25 6.73 20.61 5.67 19.73L8.77 16.64ZM12.19 13.22L18.5 19.55C16.33 21.45 13.78 22.25 10.88 21.94C11.09 21.28 11.2 20.56 11.2 19.78C11.2 19.16 11.06 18.43 10.78 17.6C10.5 16.77 10.17 16.09 9.8 15.56L12.19 13.22ZM8.81 14.5C7.8987 13.685 6.78164 13.1352 5.58 12.91C4.36 12.68 3.19 12.75 2.06 13.13C2.03 12.91 2 12.53 2 12C2 10.97 2.25 9.82002 2.72 8.55002C3.19 7.29002 3.77 6.27002 4.45 5.50002L11.11 12.19L8.81 14.5ZM15.56 7.73002C14.22 6.08002 13.91 4.28002 14.63 2.34002C15.25 2.50002 15.96 2.80002 16.76 3.26002C17.55 3.71002 18.2 4.16002 18.7 4.59002L15.56 7.73002ZM21.66 9.38002C21.06 9.59002 20.44 9.70002 19.78 9.70002C18.69 9.70002 17.64 9.38002 16.64 8.72002L19.73 5.67002C20.61 6.77002 21.25 8.00002 21.66 9.38002ZM12.19 11.11L5.5 4.45002C7.67 2.55002 10.22 1.75002 13.13 2.06002C12.91 2.72002 12.8 3.44002 12.8 4.22002C12.8 4.94002 12.96 5.75002 13.29 6.66002C13.62 7.56002 14 8.28002 14.5 8.81002L12.19 11.11Z" fill="#EFEFFF"/>
</g>
</svg>
