<svg width="24" height="23" viewBox="0 0 24 23" fill="none" xmlns="http://www.w3.org/2000/svg">
<g id="Disparos">
<path id="Vector" d="M4.5 1.64459L1.93172 7.79844C1.94391 7.82539 1.97109 7.86133 2.0325 7.91075C2.13375 7.9916 2.32312 8.09043 2.57109 8.17129C3.06656 8.32852 3.78516 8.41836 4.5 8.41836C5.2125 8.41836 5.93437 8.32852 6.43125 8.17129C6.675 8.09043 6.86719 7.9916 6.96563 7.91075C7.02656 7.85684 7.05469 7.82539 7.06875 7.79844L4.5 1.64459ZM12 1.64459L9.43125 7.79844C9.44531 7.82539 9.47344 7.85684 9.53437 7.91075C9.63281 7.9916 9.825 8.09043 10.0688 8.17129C10.5656 8.32852 11.2875 8.41836 12 8.41836C12.7172 8.41836 13.4344 8.32852 13.9313 8.17129C14.175 8.09043 14.3672 7.9916 14.4656 7.91075C14.5266 7.85684 14.5547 7.82539 14.5687 7.79844L12 1.64459ZM19.5 1.64459L16.9313 7.79844C16.9453 7.82539 16.9734 7.85684 17.0344 7.91075C17.1328 7.9916 17.325 8.09043 17.5687 8.17129C18.0656 8.32852 18.7875 8.41836 19.5 8.41836C20.2125 8.41836 20.9344 8.32852 21.4313 8.17129C21.675 8.09043 21.8672 7.9916 21.9656 7.91075C22.0266 7.85684 22.0547 7.82539 22.0687 7.79844L19.5 1.64459ZM1.92188 8.79121V9.55489C1.92188 9.59981 1.93125 9.63574 2.0325 9.7211C2.13375 9.80196 2.32312 9.90078 2.57109 9.98164C3.06656 10.1389 3.78516 10.2287 4.5 10.2287C5.2125 10.2287 5.93437 10.1389 6.43125 9.98164C6.675 9.90078 6.86719 9.80196 6.96563 9.7211C7.06875 9.63574 7.07812 9.59981 7.07812 9.55489V8.79121C6.95625 8.84512 6.82969 8.89453 6.69375 8.93496C6.06563 9.13711 5.2875 9.22696 4.5 9.22696C3.71484 9.22696 2.93344 9.13711 2.30391 8.93496C2.16938 8.89453 2.04187 8.84512 1.92188 8.79121ZM9.42188 8.79121V9.55489C9.42188 9.59981 9.43125 9.63574 9.53437 9.7211C9.63281 9.80196 9.825 9.90078 10.0688 9.98164C10.5656 10.1389 11.2875 10.2287 12 10.2287C12.7172 10.2287 13.4344 10.1389 13.9313 9.98164C14.175 9.90078 14.3672 9.80196 14.4656 9.7211C14.5688 9.63574 14.5781 9.59981 14.5781 9.55489V8.79121C14.4563 8.84512 14.3297 8.89453 14.1937 8.93496C13.5656 9.13711 12.7875 9.22696 12 9.22696C11.2125 9.22696 10.4344 9.13711 9.80625 8.93496C9.67031 8.89453 9.54375 8.84512 9.42188 8.79121ZM16.9219 8.79121V9.55489C16.9219 9.59981 16.9312 9.63574 17.0344 9.7211C17.1328 9.80196 17.325 9.90078 17.5687 9.98164C18.0656 10.1389 18.7875 10.2287 19.5 10.2287C20.2125 10.2287 20.9344 10.1389 21.4313 9.98164C21.675 9.90078 21.8672 9.80196 21.9656 9.7211C22.0688 9.63574 22.0781 9.59981 22.0781 9.55489V8.79121C21.9563 8.84512 21.8297 8.89453 21.6937 8.93496C21.0656 9.13711 20.2875 9.22696 19.5 9.22696C18.7125 9.22696 17.9344 9.13711 17.3063 8.93496C17.1703 8.89453 17.0437 8.84512 16.9219 8.79121ZM1.92188 10.6016V17.7127L2.72156 19.2445L1.93828 20.7449C1.95234 20.7719 1.97906 20.8033 2.0325 20.8482C2.13375 20.9291 2.32312 21.0279 2.57109 21.1088C3.06656 21.266 3.78516 21.3559 4.5 21.3559C5.2125 21.3559 5.93437 21.266 6.43125 21.1088C6.675 21.0279 6.86719 20.9291 6.96563 20.8482C7.02188 20.8033 7.04531 20.7719 7.06406 20.7449L6.27656 19.2445L7.07812 17.7127V10.6016C6.95625 10.6555 6.82969 10.7049 6.69375 10.7453C6.06563 10.9475 5.2875 11.0373 4.5 11.0373C3.71484 11.0373 2.93344 10.9475 2.30391 10.7453C2.16938 10.7049 2.04187 10.6555 1.92188 10.6016ZM9.42188 10.6016V17.7127L10.2234 19.2445L9.43594 20.7449C9.45469 20.7719 9.47812 20.8033 9.53437 20.8482C9.63281 20.9291 9.825 21.0279 10.0688 21.1088C10.5656 21.266 11.2875 21.3559 12 21.3559C12.7172 21.3559 13.4344 21.266 13.9313 21.1088C14.175 21.0279 14.3672 20.9291 14.4656 20.8482C14.5219 20.8033 14.5453 20.7719 14.5641 20.7449L13.7766 19.2445L14.5781 17.7127V10.6016C14.4563 10.6555 14.3297 10.7049 14.1937 10.7453C13.5656 10.9475 12.7875 11.0373 12 11.0373C11.2125 11.0373 10.4344 10.9475 9.80625 10.7453C9.67031 10.7049 9.54375 10.6555 9.42188 10.6016ZM16.9219 10.6016V17.7127L17.7234 19.2445L16.9359 20.7449C16.9547 20.7719 16.9781 20.8033 17.0344 20.8482C17.1328 20.9291 17.325 21.0279 17.5687 21.1088C18.0656 21.266 18.7875 21.3559 19.5 21.3559C20.2125 21.3559 20.9344 21.266 21.4313 21.1088C21.675 21.0279 21.8672 20.9291 21.9656 20.8482C22.0219 20.8033 22.0453 20.7719 22.0641 20.7449L21.2766 19.2445L22.0781 17.7127V10.6016C21.9563 10.6555 21.8297 10.7049 21.6937 10.7453C21.0656 10.9475 20.2875 11.0373 19.5 11.0373C18.7125 11.0373 17.9344 10.9475 17.3063 10.7453C17.1703 10.7049 17.0437 10.6555 16.9219 10.6016Z" fill="#EFEFFF"/>
</g>
</svg>
