<svg width="14" height="14" viewBox="0 0 14 14" fill="none" xmlns="http://www.w3.org/2000/svg">
<path d="M0.177109 0.118741C0.251797 0.0553713 0.343454 0.015334 0.440698 0.00360069C0.537942 -0.00813263 0.636491 0.00895482 0.724109 0.0527415L13.7241 6.55274C13.807 6.59431 13.8768 6.65814 13.9255 6.73708C13.9743 6.81602 14.0001 6.90697 14.0001 6.99974C14.0001 7.09252 13.9743 7.18346 13.9255 7.2624C13.8768 7.34135 13.807 7.40517 13.7241 7.44674L0.724109 13.9467C0.636551 13.9906 0.538026 14.0079 0.440768 13.9963C0.343509 13.9847 0.251801 13.9447 0.177029 13.8815C0.102257 13.8182 0.047714 13.7344 0.0201728 13.6404C-0.00736843 13.5464 -0.00669526 13.4464 0.0221089 13.3527L1.97711 6.99974L0.0221089 0.646742C-0.00653052 0.553219 -0.00711086 0.45335 0.0204396 0.3595C0.0479901 0.265651 0.102461 0.181943 0.177109 0.118741ZM2.86911 7.49974L1.32211 12.5297L12.3821 6.99974L1.32211 1.46974L2.86911 6.49974H8.50011C8.63272 6.49974 8.75989 6.55242 8.85366 6.64619C8.94743 6.73996 9.00011 6.86713 9.00011 6.99974C9.00011 7.13235 8.94743 7.25953 8.85366 7.3533C8.75989 7.44706 8.63272 7.49974 8.50011 7.49974H2.86911Z" fill="#00001D"/>
</svg>
