<svg width="24" height="24" viewBox="0 0 24 24" fill="none" xmlns="http://www.w3.org/2000/svg">
<g clip-path="url(#clip0_641_584)">
<path d="M16.2375 7.25816C15.9022 7.06166 15.5749 6.96228 15.3161 6.96228C15.0589 6.96228 14.8706 7.06166 14.8136 7.25816C14.6974 7.65153 15.1496 8.28903 15.8209 8.68241C16.1569 8.87966 16.4839 8.97791 16.7419 8.97791C16.9991 8.97791 17.1874 8.87966 17.2459 8.68241C17.361 8.28903 16.9095 7.65153 16.2375 7.25816ZM10.9237 18.054C10.6819 17.9674 10.341 17.9502 9.95774 18.0225C9.19274 18.1692 8.55374 18.6192 8.53012 19.0283C8.51812 19.2327 8.66287 19.389 8.90587 19.4749C9.14849 19.5615 9.48974 19.578 9.87187 19.5053C10.6372 19.3598 11.2766 18.9102 11.3002 18.4999C11.3122 18.2955 11.1675 18.1395 10.9237 18.054ZM14.6257 17.2212C14.3835 17.1353 14.0415 17.1173 13.6597 17.1904C12.8951 17.3363 12.2565 17.7852 12.2329 18.1954C12.2216 18.4002 12.366 18.5558 12.6086 18.642C12.8512 18.7283 13.1929 18.7452 13.5746 18.6732C14.3407 18.5269 14.9779 18.0777 15.0022 17.6678C15.0127 17.463 14.8687 17.3078 14.6257 17.2212ZM18.1747 16.4959C17.9329 16.41 17.5905 16.3928 17.208 16.4655C16.4441 16.6114 15.8047 17.0607 15.7819 17.4709C15.7706 17.6753 15.9146 17.8313 16.1576 17.9175C16.3999 18.0038 16.7419 18.0207 17.1244 17.9479C17.8897 17.802 18.5276 17.3528 18.5512 16.9433C18.5625 16.7382 18.4177 16.5825 18.1747 16.4959ZM8.01749 9.85503C7.81499 10.014 7.61811 10.2938 7.47411 10.656C7.18836 11.3805 7.22662 12.1598 7.55924 12.3987C7.72649 12.5179 7.93574 12.48 8.13824 12.321C8.34187 12.162 8.53874 11.8823 8.68199 11.5204C8.96774 10.7963 8.92986 10.0159 8.59686 9.77703C8.42999 9.65778 8.22036 9.69566 8.01749 9.85503ZM3.89249 8.59916C3.68887 8.75816 3.49199 9.03716 3.34874 9.39941C3.06224 10.1235 3.10012 10.9039 3.43462 11.142C3.60037 11.2617 3.80961 11.223 4.01324 11.064C4.21574 10.905 4.41262 10.6257 4.55587 10.2634C4.84237 9.53966 4.80411 8.75928 4.47074 8.52003C4.30424 8.40115 4.09499 8.43941 3.89249 8.59916Z" fill="#EFEFFF"/>
<path d="M23.1345 13.3961L20.6764 5.98312C20.3051 4.86337 19.1374 3.6945 18.0169 3.32325L10.6031 0.865121C10.1404 0.711746 9.7245 0.712496 9.40425 0.863621C9.05775 0.957746 8.66175 1.107 8.256 1.296C7.70137 1.55437 7.01737 1.947 6.72712 2.28862C6.69448 2.31662 6.66284 2.34576 6.63225 2.376L1.66012 7.34925C0.887249 8.12175 0.543374 9.59175 0.877499 10.6961L3.03825 17.8526C3.07762 17.9835 3.12637 18.1069 3.18337 18.2197C3.35737 18.7492 4.07062 19.4914 4.28962 19.7104C4.50937 19.9297 5.25262 20.6449 5.78212 20.8185C5.89462 20.8744 6.018 20.9231 6.14812 20.9625L13.3042 23.1232C13.5817 23.2076 13.8866 23.25 14.211 23.25C15.1406 23.25 16.0984 22.893 16.6504 22.341L21.6236 17.3674C21.6551 17.3359 21.6836 17.3044 21.7114 17.2725C22.0534 16.9811 22.446 16.2971 22.7036 15.7444C22.8937 15.3367 23.043 14.9396 23.1371 14.5927C23.2886 14.2706 23.2879 13.8581 23.1345 13.3961ZM4.31587 18.6626C4.04325 18.3311 3.89887 18.0855 3.87 17.9835L3.84225 17.9145C3.79757 17.8276 3.76116 17.7367 3.7335 17.643L1.572 10.4861C1.31737 9.64425 1.59262 8.44275 2.17312 7.86262L7.14637 2.889C7.17187 2.86312 7.19887 2.84062 7.22475 2.81812L7.27275 2.76787C7.3575 2.66062 7.58737 2.48587 7.91737 2.29162C8.232 2.391 8.49975 2.688 8.64487 3.17025L10.8056 10.3271C11.0996 11.2995 10.7899 12.6367 10.1137 13.3129L5.14125 18.2861C4.8705 18.5565 4.58325 18.6739 4.31587 18.6626ZM21.231 16.7276L21.1796 16.7775C21.1575 16.803 21.1357 16.8289 21.1099 16.8544L16.1374 21.828C15.7211 22.2442 14.9467 22.5236 14.2114 22.5236C13.9756 22.5261 13.7403 22.494 13.5139 22.4284L6.35775 20.2676C6.26407 20.2397 6.17318 20.2032 6.08625 20.1585L6.01687 20.1315C5.91525 20.103 5.66962 19.9579 5.33812 19.6852C5.3265 19.4175 5.44312 19.1306 5.71425 18.8595L10.6864 13.8866C11.3629 13.2101 12.6994 12.9004 13.6721 13.1944L20.8282 15.3555C21.3112 15.5014 21.6082 15.7695 21.7072 16.0841C21.5138 16.4134 21.3382 16.6425 21.231 16.7276ZM22.4737 14.2976L22.4452 14.3726C22.41 14.5065 22.3616 14.655 22.3057 14.8087C22.1044 14.8474 21.8569 14.8264 21.57 14.7311L14.1566 12.273C13.1486 11.9392 12.0604 10.851 11.7274 9.84337L9.26925 2.43C9.17437 2.14312 9.153 1.896 9.19162 1.69425C9.34462 1.63912 9.492 1.59075 9.6255 1.5555L9.70162 1.52587C9.7665 1.49212 9.85012 1.47487 9.95025 1.47487C10.0747 1.47487 10.2176 1.5015 10.3755 1.55362L17.7889 4.01175C18.6844 4.30875 19.6909 5.316 19.9875 6.21112L22.446 13.6241C22.539 13.9069 22.5495 14.1517 22.4737 14.2976Z" fill="#EFEFFF"/>
</g>
<defs>
<clipPath id="clip0_641_584">
<rect width="24" height="24" fill="white"/>
</clipPath>
</defs>
</svg>
