<svg width="22" height="20" viewBox="0 0 22 20" fill="none" xmlns="http://www.w3.org/2000/svg">
<path id="Star 1" d="M11.2267 1.26886L13.4852 6.13195C13.7402 6.68102 14.2608 7.0593 14.8618 7.13214L20.1848 7.77727C20.396 7.80286 20.4807 8.06372 20.3249 8.20856L16.3978 11.8592C15.9544 12.2714 15.7555 12.8835 15.8719 13.4776L16.9033 18.7394C16.9442 18.9481 16.7223 19.1094 16.5364 19.0059L11.8508 16.3991C11.3218 16.1048 10.6782 16.1048 10.1492 16.3991L5.46362 19.0059C5.27773 19.1094 5.05583 18.9481 5.09674 18.7394L6.12807 13.4776C6.24452 12.8835 6.04564 12.2714 5.60225 11.8592L1.67507 8.20856C1.51927 8.06372 1.60403 7.80286 1.81521 7.77727L7.13818 7.13214C7.73917 7.0593 8.25982 6.68102 8.51481 6.13195L10.7733 1.26886C10.8629 1.07593 11.1371 1.07593 11.2267 1.26886Z" stroke="#FF8000" stroke-width="1.5"/>
</svg>
