<svg width="60" height="60" viewBox="0 0 60 60" fill="none" xmlns="http://www.w3.org/2000/svg">
<g id="Group">
<path id="Vector" fill-rule="evenodd" clip-rule="evenodd" d="M20.7325 31.7675C20.2638 31.2987 20.0005 30.6629 20.0005 30C20.0005 29.3371 20.2638 28.7013 20.7325 28.2325L34.875 14.09C35.1056 13.8512 35.3815 13.6608 35.6865 13.5297C35.9915 13.3987 36.3196 13.3298 36.6515 13.3269C36.9835 13.324 37.3127 13.3872 37.6199 13.5129C37.9271 13.6387 38.2063 13.8243 38.441 14.059C38.6757 14.2937 38.8614 14.5729 38.9871 14.8801C39.1128 15.1874 39.176 15.5166 39.1731 15.8485C39.1703 16.1805 39.1013 16.5085 38.9703 16.8135C38.8392 17.1185 38.6488 17.3944 38.41 17.625L26.035 30L38.41 42.375C38.8654 42.8465 39.1174 43.478 39.1117 44.1335C39.106 44.789 38.8431 45.416 38.3796 45.8795C37.916 46.3431 37.289 46.606 36.6335 46.6117C35.978 46.6174 35.3465 46.3654 34.875 45.91L20.7325 31.7675Z" fill="#EFEFFF"/>
</g>
</svg>
