<svg width="30" height="30" viewBox="0 0 30 30" fill="none" xmlns="http://www.w3.org/2000/svg">
<g id="Group">
<path id="Vector" d="M10.6233 5.67997C9.17333 5.7358 7.8625 6.2533 7.16167 6.95496C7.08424 7.03234 6.99234 7.0937 6.8912 7.13555C6.79006 7.1774 6.68166 7.19892 6.57221 7.19888C6.46275 7.19885 6.35437 7.17725 6.25326 7.13532C6.15215 7.0934 6.06029 7.03197 5.98292 6.95455C5.90555 6.87712 5.84418 6.78522 5.80233 6.68408C5.76048 6.58294 5.73896 6.47454 5.739 6.36509C5.73904 6.25563 5.76063 6.14725 5.80256 6.04614C5.84448 5.94503 5.90591 5.85317 5.98333 5.7758C7.06417 4.69497 8.82417 4.08163 10.5583 4.01413C12.3042 3.94663 14.21 4.42413 15.545 5.75913C15.7013 5.9155 15.789 6.12753 15.7889 6.34859C15.7888 6.56965 15.701 6.78162 15.5446 6.93788C15.3882 7.09414 15.1762 7.18188 14.9551 7.1818C14.7341 7.18172 14.5221 7.09383 14.3658 6.93747C13.4575 6.0283 12.0625 5.6233 10.6233 5.67913V5.67997Z" fill="#EFEFFF"/>
<path id="Vector_2" fill-rule="evenodd" clip-rule="evenodd" d="M17.82 19.1133C15.8674 20.7657 13.3913 21.6706 10.8333 21.6667C4.85 21.6667 0 16.8167 0 10.8333C0 4.85 4.85 0 10.8333 0C16.8167 0 21.6667 4.85 21.6667 10.8333C21.6667 13.4958 20.7067 15.9333 19.1133 17.82L20.9533 17.5L29.5233 26.07C30.1592 26.7058 30.1592 27.7367 29.5233 28.3717L28.3717 29.5233C27.7358 30.1592 26.705 30.1592 26.07 29.5233L17.5 20.9533L17.82 19.1133ZM20 10.8333C20 15.8958 15.8958 20 10.8333 20C5.77083 20 1.66667 15.8958 1.66667 10.8333C1.66667 5.77083 5.77083 1.66667 10.8333 1.66667C15.8958 1.66667 20 5.77083 20 10.8333ZM26.0408 24.9442L20.3867 19.29L19.4533 19.4525L19.29 20.3867L24.9608 26.0575L26.0408 24.9442ZM26.1392 27.2358L27.2208 28.3175L28.3175 27.2208L27.2192 26.1225L26.1392 27.2358Z" fill="#EFEFFF"/>
</g>
</svg>
