<svg width="24" height="24" viewBox="0 0 24 24" fill="none" xmlns="http://www.w3.org/2000/svg">
<g id="motos" clip-path="url(#clip0_99_2069)">
<path id="Vector" d="M20.25 11.25C20.0427 11.2505 19.8357 11.2677 19.6312 11.3016L19.0856 9.88219C19.4675 9.79453 19.8581 9.75019 20.25 9.75C20.4489 9.75 20.6396 9.67098 20.7803 9.53033C20.921 9.38968 21 9.19891 21 9C21 8.80109 20.921 8.61032 20.7803 8.46967C20.6396 8.32902 20.4489 8.25 20.25 8.25H18.4575L17.2003 4.98094C17.1459 4.83936 17.0498 4.71761 16.9248 4.63175C16.7998 4.54589 16.6516 4.49995 16.5 4.5H13.5C13.3011 4.5 13.1103 4.57902 12.9696 4.71967C12.829 4.86032 12.75 5.05109 12.75 5.25C12.75 5.44891 12.829 5.63968 12.9696 5.78033C13.1103 5.92098 13.3011 6 13.5 6H15.9853L16.8506 8.25H14.25C12.5156 8.25 11.1093 8.65406 10.184 9.41812C9.96628 9.59378 9.70375 9.70504 9.42609 9.73933C9.14844 9.77363 8.86672 9.72959 8.61278 9.61219C7.6209 9.16125 1.74184 6.78844 1.69403 6.77531C1.50719 6.72039 1.30632 6.7403 1.13389 6.83083C0.961469 6.92135 0.831018 7.0754 0.770129 7.26038C0.70924 7.44536 0.72269 7.64677 0.807633 7.82201C0.892576 7.99725 1.04235 8.13258 1.22528 8.19937C1.22528 8.19937 6.4284 10.2563 7.46247 11.2875C8.26581 12.0876 8.78676 13.1275 8.94653 14.25H7.42497C7.23911 13.3395 6.72178 12.5304 5.97328 11.9796C5.22477 11.4288 4.29843 11.1756 3.37382 11.269C2.44922 11.3624 1.59224 11.7958 0.969015 12.4851C0.345792 13.1745 0.000732422 14.0707 0.000732422 15C0.000732422 15.9293 0.345792 16.8255 0.969015 17.5149C1.59224 18.2042 2.44922 18.6376 3.37382 18.731C4.29843 18.8244 5.22477 18.5712 5.97328 18.0204C6.72178 17.4696 7.23911 16.6605 7.42497 15.75H12.3112C12.9617 15.7514 13.5949 15.5408 14.115 15.15C14.635 14.7592 15.0135 14.2096 15.1931 13.5844C15.3802 12.9193 15.6967 12.2978 16.1244 11.7553C16.5522 11.2128 17.0828 10.7601 17.6859 10.4231L18.2315 11.8416C17.4714 12.3281 16.9122 13.0725 16.6566 13.9381C16.401 14.8037 16.4662 15.7324 16.8402 16.5538C17.2141 17.3752 17.8718 18.0342 18.6924 18.4098C19.5131 18.7854 20.4417 18.8525 21.3078 18.5986C22.1739 18.3448 22.9194 17.7871 23.4075 17.0279C23.8955 16.2688 24.0934 15.359 23.9648 14.4657C23.8363 13.5724 23.3898 12.7554 22.7074 12.1647C22.025 11.574 21.1525 11.2492 20.25 11.25ZM3.74997 15.75H5.87059C5.69367 16.2504 5.34554 16.6722 4.88773 16.9407C4.42992 17.2093 3.89191 17.3073 3.36879 17.2176C2.84567 17.1278 2.37112 16.856 2.02901 16.4502C1.68691 16.0444 1.49927 15.5308 1.49927 15C1.49927 14.4692 1.68691 13.9556 2.02901 13.5498C2.37112 13.144 2.84567 12.8722 3.36879 12.7824C3.89191 12.6927 4.42992 12.7907 4.88773 13.0593C5.34554 13.3278 5.69367 13.7496 5.87059 14.25H3.74997C3.55105 14.25 3.36029 14.329 3.21964 14.4697C3.07898 14.6103 2.99997 14.8011 2.99997 15C2.99997 15.1989 3.07898 15.3897 3.21964 15.5303C3.36029 15.671 3.55105 15.75 3.74997 15.75ZM20.25 17.25C19.7904 17.2494 19.342 17.1081 18.9651 16.8451C18.5882 16.5821 18.3009 16.21 18.1418 15.7788C17.9828 15.3476 17.9595 14.8781 18.0753 14.4333C18.1911 13.9885 18.4402 13.5899 18.7893 13.2909L19.5497 15.2691C19.621 15.4548 19.7632 15.6046 19.945 15.6855C20.1268 15.7663 20.3333 15.7717 20.519 15.7003C20.7048 15.629 20.8545 15.4867 20.9354 15.3049C21.0163 15.1231 21.0216 14.9167 20.9503 14.7309L20.189 12.75H20.25C20.8467 12.75 21.419 12.9871 21.841 13.409C22.2629 13.831 22.5 14.4033 22.5 15C22.5 15.5967 22.2629 16.169 21.841 16.591C21.419 17.0129 20.8467 17.25 20.25 17.25Z" fill="#EFEFFF"/>
</g>
<defs>
<clipPath id="clip0_99_2069">
<rect width="24" height="24" fill="white"/>
</clipPath>
</defs>
</svg>
