<svg width="40" height="40" viewBox="0 0 40 40" fill="none" xmlns="http://www.w3.org/2000/svg">
<g id="Group">
<path id="Vector" d="M27.6801 16.1599C27.6801 18.1967 26.8709 20.1502 25.4306 21.5904C23.9904 23.0307 22.0369 23.8398 20.0001 23.8398C17.9632 23.8398 16.0098 23.0307 14.5695 21.5904C13.1292 20.1502 12.3201 18.1967 12.3201 16.1599C12.3201 14.1231 13.1292 12.1696 14.5695 10.7294C16.0098 9.28911 17.9632 8.47998 20.0001 8.47998C22.0369 8.47998 23.9904 9.28911 25.4306 10.7294C26.8709 12.1696 27.6801 14.1231 27.6801 16.1599Z" fill="#00001D"/>
<path id="Vector_2" fill-rule="evenodd" clip-rule="evenodd" d="M19.2167 39.1843C8.97637 38.7734 0.800049 30.3408 0.800049 19.9998C0.800049 9.39579 9.39589 0.800049 20 0.800049C30.6042 0.800049 39.2001 9.39579 39.2001 19.9998C39.2001 30.6039 30.6042 39.1996 20 39.1996C19.9124 39.2002 19.8247 39.2002 19.737 39.1996C19.5632 39.1996 19.3895 39.1939 19.2167 39.1843ZM7.67941 32.1149C7.53586 31.7027 7.48699 31.2634 7.53645 30.8297C7.5859 30.3959 7.73241 29.9789 7.96508 29.6096C8.19776 29.2402 8.51064 28.928 8.88049 28.6962C9.25034 28.4643 9.66766 28.3187 10.1015 28.2701C17.5856 27.4417 22.4605 27.5166 29.9082 28.2874C30.3426 28.3327 30.761 28.4764 31.1314 28.7078C31.5019 28.9391 31.8146 29.252 32.0459 29.6225C32.2771 29.993 32.4208 30.4114 32.4659 30.8458C32.5111 31.2802 32.4565 31.7192 32.3063 32.1293C35.4982 28.8998 37.2858 24.5405 37.2801 19.9998C37.2801 10.4566 29.5434 2.72003 20 2.72003C10.4567 2.72003 2.72005 10.4566 2.72005 19.9998C2.72005 24.7191 4.61221 28.9969 7.67941 32.1149Z" fill="#00001D"/>
</g>
</svg>
