<svg width="60" height="60" viewBox="0 0 60 60" fill="none" xmlns="http://www.w3.org/2000/svg">
<g id="Recaptcha" clip-path="url(#clip0_342_743)">
<path id="Vector" d="M49.5235 20.8933C49.5227 20.5937 49.5159 20.2942 49.5031 19.995V3.01254L45.0285 7.70754C41.3659 3.00418 35.7945 0 29.5538 0C23.0596 0 17.2899 3.2523 13.6431 8.28934L20.9778 16.0657C21.696 14.6737 22.7133 13.4761 23.949 12.568C25.2296 11.5198 27.0439 10.6623 29.5538 10.6623C29.8571 10.6623 30.0913 10.6997 30.2631 10.7695C33.373 11.0272 36.0685 12.8277 37.6555 15.4411L32.4634 20.8884C39.0397 20.8613 46.4687 20.8456 49.5231 20.892" fill="#1C3AA9"/>
<path id="Vector_2" d="M29.4373 0.000732422C29.1518 0.00158231 28.8664 0.00871503 28.5812 0.0221259H12.3948L16.8697 4.71713C12.3868 8.55959 9.52344 14.4052 9.52344 20.9525C9.52344 27.7665 12.6233 33.8198 17.4242 37.6463L24.8361 29.9508C23.5092 29.1973 22.3679 28.1299 21.5023 26.8333C20.5032 25.4899 19.6859 23.5861 19.6859 20.9528C19.6859 20.6348 19.7216 20.3892 19.7881 20.2087C20.0337 16.9461 21.7498 14.1179 24.2408 12.4529L29.4327 17.9002C29.4069 11.0002 29.3916 3.20581 29.4362 0.00122423" fill="#4285F4"/>
<path id="Vector_3" d="M9.52417 20.952C9.52511 21.253 9.53167 21.5523 9.54456 21.8503V38.8328L14.0195 34.1378C17.6818 38.8411 23.2534 41.8453 29.4939 41.8453C35.9884 41.8453 41.758 38.593 45.4051 33.556L38.0703 25.7796C37.3521 27.1717 36.3348 28.3692 35.0989 29.2773C33.8185 30.3256 32.004 31.183 29.4941 31.183C29.191 31.183 28.9569 31.1456 28.7849 31.0756C25.6752 30.8181 22.9796 29.0174 21.3927 26.4042L26.5846 20.9567C20.008 20.9837 12.579 20.9997 9.52464 20.9533" fill="#ABABAB"/>
<path id="Vector_4" d="M12.8937 49.9594C12.4073 49.9594 11.9712 50.056 11.5854 50.2495C11.2025 50.4363 10.8665 50.7144 10.6041 51.0615C10.3399 51.4134 10.1365 51.8403 9.99398 52.3416C9.8557 52.8389 9.78633 53.3953 9.78633 54.0113V55.7867C9.78633 56.4069 9.8557 56.9656 9.99398 57.4628C10.1365 57.96 10.3378 58.3844 10.598 58.7366C10.8579 59.0882 11.1722 59.3589 11.5413 59.548C11.9102 59.7374 12.3255 59.8321 12.7868 59.8321C13.2607 59.8321 13.6758 59.7593 14.0323 59.6142C14.393 59.4691 14.6948 59.2601 14.9379 58.9871C15.1812 58.71 15.3677 58.3758 15.4978 57.9841C15.6321 57.5926 15.7116 57.148 15.7369 56.6511H14.5732C14.5439 57.0337 14.4935 57.3617 14.4223 57.6344C14.351 57.9027 14.246 58.125 14.1077 58.3008C13.9734 58.4725 13.7974 58.6001 13.5792 58.6837C13.3655 58.7629 13.1011 58.8025 12.7868 58.8025C12.4514 58.8025 12.1662 58.7255 11.9313 58.5713C11.6965 58.413 11.5057 58.1975 11.359 57.9246C11.2165 57.6519 11.1115 57.333 11.0445 56.9678C10.9816 56.6026 10.95 56.2089 10.95 55.7865V53.998C10.95 53.5448 10.9877 53.1334 11.0632 52.7639C11.1429 52.3945 11.2624 52.0798 11.4218 51.8203C11.5812 51.5607 11.7825 51.3605 12.0258 51.2196C12.2688 51.0745 12.5583 51.002 12.8937 51.002C13.1747 51.002 13.4159 51.046 13.617 51.134C13.8159 51.2155 13.9899 51.3524 14.1202 51.5299C14.2545 51.7057 14.3571 51.9303 14.4284 52.203C14.4998 52.4759 14.5479 52.8012 14.5732 53.1797H15.7369C15.7158 52.6606 15.6384 52.201 15.5041 51.8004C15.3698 51.4001 15.1833 51.0634 14.9442 50.7907C14.7052 50.5178 14.4138 50.3112 14.07 50.1703C13.7302 50.0297 13.3383 49.9594 12.8937 49.9594ZM41.2999 49.9594C40.8134 49.9594 40.3772 50.056 39.9914 50.2495C39.6085 50.4363 39.2725 50.7144 39.0101 51.0615C38.7459 51.4134 38.5427 51.8403 38.4 52.3416C38.2617 52.8389 38.1926 53.3953 38.1926 54.0113V55.7867C38.1926 56.4069 38.2617 56.9656 38.4 57.4628C38.5425 57.96 38.7438 58.3844 39.004 58.7366C39.2639 59.0882 39.5782 59.3589 39.9473 59.548C40.3165 59.7374 40.7316 59.8321 41.1928 59.8321C41.6667 59.8321 42.0818 59.7593 42.4383 59.6142C42.799 59.4691 43.1009 59.2601 43.3441 58.9871C43.5872 58.71 43.7738 58.3758 43.9038 57.9841C44.0381 57.5926 44.1178 57.148 44.1429 56.6511H42.9792C42.9499 57.0337 42.8995 57.3617 42.8283 57.6344C42.757 57.9027 42.6523 58.125 42.5137 58.3008C42.3797 58.4725 42.2034 58.6001 41.9855 58.6837C41.7715 58.7629 41.5073 58.8025 41.1928 58.8025C40.8574 58.8025 40.5722 58.7255 40.3373 58.5713C40.1025 58.413 39.9117 58.1975 39.765 57.9246C39.6225 57.6519 39.5177 57.333 39.4505 56.9678C39.3877 56.6026 39.3563 56.2089 39.3563 55.7865V53.998C39.3563 53.5448 39.3937 53.1334 39.4695 52.7639C39.5491 52.3945 39.6687 52.0798 39.828 51.8203C39.9874 51.5607 40.1885 51.3605 40.4318 51.2196C40.6751 51.0745 40.9643 51.002 41.2997 51.002C41.5809 51.002 41.8219 51.046 42.0232 51.134C42.2243 51.2176 42.3921 51.3494 42.5264 51.5299C42.6605 51.7057 42.7631 51.9303 42.8346 52.203C42.9059 52.4759 42.9541 52.8012 42.9792 53.1797H44.1429C44.1218 52.6606 44.0445 52.201 43.9102 51.8004C43.7759 51.4001 43.5893 51.0634 43.3502 50.7907C43.1112 50.5178 42.8198 50.3112 42.476 50.1703C42.1362 50.0297 41.7443 49.9591 41.2997 49.9591L41.2999 49.9594ZM19.5239 50.0914L16.5738 59.7H17.7563L18.4671 57.1921H21.5618L22.2851 59.7H23.4677L20.5113 50.0914H19.5239ZM24.713 50.0914V59.7H25.864V55.9382H27.6314C28.0718 55.9382 28.4618 55.8743 28.8014 55.7469C29.1413 55.6148 29.4263 55.4257 29.6569 55.1793C29.8917 54.933 30.0677 54.6293 30.1852 54.2685C30.307 53.9034 30.3677 53.49 30.3677 53.028C30.3677 52.6011 30.3068 52.2096 30.1852 51.8533C30.068 51.4925 29.8938 51.1822 29.6632 50.9228C29.4326 50.6587 29.1452 50.4541 28.8014 50.309C28.4616 50.1639 28.0718 50.0912 27.6314 50.0912H24.713V50.0914ZM31.2483 50.0914V51.134H33.6511V59.7H34.8019V51.134H37.2113V50.0914H31.2483ZM45.6966 50.0914V59.7H46.8473V55.2585H50.5336V59.7H51.6909V50.0914H50.5336V54.2225H46.8476V50.0914H45.6966ZM56.0559 50.0914L53.1061 59.7H54.2887L54.9994 57.1921H58.0941L58.8176 59.7H60L57.0436 50.0914H56.0562H56.0559ZM25.8637 51.134H27.6314C27.9124 51.134 28.1513 51.1866 28.3486 51.2924C28.5497 51.3981 28.7133 51.5388 28.8391 51.7148C28.972 51.8972 29.0683 52.1059 29.122 52.3284C29.1851 52.5571 29.2165 52.7948 29.2165 53.0412C29.2165 53.3142 29.1851 53.5648 29.122 53.7937C29.0681 54.0081 28.9717 54.2082 28.8391 54.3809C28.7133 54.5437 28.5497 54.6711 28.3484 54.7635C28.1515 54.856 27.9124 54.9022 27.6312 54.9022H25.864L25.8637 51.134ZM20.0142 51.7807L21.266 56.1494H18.769L20.0142 51.7807ZM56.5467 51.7807L57.7983 56.1494H55.3013L56.5467 51.7807ZM2.36508 52.4275C2.07562 52.4275 1.82602 52.5044 1.61648 52.6586C1.41094 52.8125 1.23914 53.0216 1.10086 53.2854L1.08188 52.5595H0V59.7H1.11328V54.5919C1.21828 54.2882 1.36711 54.0484 1.56 53.8726C1.75688 53.6966 2.00648 53.6085 2.30836 53.6085C2.40492 53.6085 2.49094 53.613 2.56617 53.6218C2.64188 53.6262 2.72367 53.6371 2.81156 53.6548L2.80547 52.5197C2.77916 52.5076 2.75165 52.4987 2.72344 52.4931C2.6867 52.4789 2.64891 52.4679 2.61047 52.4602C2.56677 52.4512 2.52265 52.4446 2.47828 52.4405C2.44105 52.4322 2.40313 52.4278 2.36508 52.4272V52.4275ZM6.10758 52.4275C5.78461 52.4275 5.47242 52.487 5.17031 52.6057C4.86844 52.7245 4.60008 52.9203 4.36523 53.193C4.13461 53.4615 3.94805 53.8134 3.80555 54.2489C3.66281 54.6802 3.59156 55.2103 3.59156 55.8394V56.6444C3.59156 57.1901 3.6525 57.663 3.77414 58.0633C3.89555 58.4636 4.06945 58.7961 4.29609 59.0599C4.52746 59.32 4.81416 59.5191 5.13281 59.6407C5.45977 59.7684 5.82656 59.8321 6.23344 59.8321C6.52688 59.8321 6.78891 59.8013 7.01977 59.7396C7.25461 59.6781 7.46203 59.5989 7.6425 59.5021C7.81124 59.4095 7.96772 59.2942 8.10797 59.159C8.23147 59.0391 8.34312 58.9065 8.44125 58.7631L7.86258 58.0239C7.77023 58.1427 7.6718 58.2526 7.56703 58.3537C7.46203 58.4506 7.34672 58.5364 7.22109 58.6112C7.08963 58.6838 6.95014 58.7392 6.80578 58.7762C6.63896 58.8177 6.46793 58.8377 6.29648 58.8357C5.78062 58.8357 5.3843 58.6618 5.1075 58.3144C4.83492 57.9666 4.69875 57.4102 4.69875 56.6447V56.4794H8.49797V55.7998C8.49797 55.2544 8.45391 54.7724 8.36578 54.3546C8.27766 53.9366 8.13727 53.5847 7.94438 53.2987C7.75665 53.0172 7.50029 52.7939 7.20211 52.652C6.90023 52.5022 6.53531 52.4275 6.10758 52.4275ZM6.10758 53.4307C6.35086 53.4307 6.55219 53.4767 6.71156 53.5692C6.86922 53.6599 6.99983 53.7946 7.08891 53.9584C7.18523 54.1257 7.25461 54.3258 7.29656 54.5592C7.3425 54.7879 7.37203 55.0409 7.38445 55.318V55.4764H4.70484C4.72172 55.0761 4.76789 54.7439 4.84312 54.4798C4.91883 54.2159 5.01727 54.0069 5.13891 53.853C5.26477 53.6946 5.40938 53.5847 5.57297 53.523C5.74473 53.4599 5.92562 53.4286 6.10758 53.4305V53.4307Z" fill="#A6A6A6"/>
</g>
<defs>
<clipPath id="clip0_342_743">
<rect width="60" height="60" fill="white"/>
</clipPath>
</defs>
</svg>
