<svg width="22" height="22" viewBox="0 0 22 22" fill="none" xmlns="http://www.w3.org/2000/svg">
<g id="Group">
<path id="Vector" d="M11.7717 5.01202C11.7717 4.81311 11.6927 4.62235 11.5521 4.48169C11.4114 4.34104 11.2206 4.26202 11.0217 4.26202C10.8228 4.26202 10.632 4.34104 10.4914 4.48169C10.3507 4.62235 10.2717 4.81311 10.2717 5.01202V9.71977C9.98807 9.88455 9.76668 10.1383 9.64185 10.4416C9.51701 10.745 9.4957 11.081 9.58122 11.3977C9.66674 11.7144 9.8543 11.9941 10.1149 12.1933C10.3754 12.3926 10.6944 12.5004 11.0225 12.5C11.8467 12.5 12.5142 11.8325 12.5142 11.0083V11L15.2502 9.42052C15.4211 9.32036 15.5454 9.15668 15.596 8.96521C15.6466 8.77374 15.6195 8.57002 15.5204 8.3985C15.4214 8.22699 15.2586 8.1016 15.0674 8.04971C14.8763 7.99782 14.6724 8.02364 14.5002 8.12152L11.7702 9.69652V5.01277L11.7717 5.01202Z" fill="#EFEFFF"/>
<path id="Vector_2" d="M21.5 11C21.5 5.201 16.799 0.5 11 0.5C5.201 0.5 0.5 5.201 0.5 11C0.5 16.799 5.201 21.5 11 21.5C16.799 21.5 21.5 16.799 21.5 11ZM19.25 11C19.25 15.5562 15.5562 19.25 11 19.25C6.44375 19.25 2.75 15.5562 2.75 11C2.75 6.44375 6.44375 2.75 11 2.75C15.5562 2.75 19.25 6.44375 19.25 11Z" fill="#EFEFFF"/>
</g>
</svg>
