<svg width="24" height="24" viewBox="0 0 24 24" fill="none" xmlns="http://www.w3.org/2000/svg">
<g id="reloj" clip-path="url(#clip0_1_708)">
<path id="Vector" d="M12 24C18.6274 24 24 18.6274 24 12C24 5.37258 18.6274 0 12 0C5.37258 0 0 5.37258 0 12C0 18.6274 5.37258 24 12 24Z" fill="#EFEFFF"/>
<path id="Vector_2" d="M12 21.3334C17.1546 21.3334 21.3333 17.1547 21.3333 12C21.3333 6.84536 17.1546 2.66669 12 2.66669C6.8453 2.66669 2.66663 6.84536 2.66663 12C2.66663 17.1547 6.8453 21.3334 12 21.3334Z" fill="#00001D"/>
<path id="Vector_3" d="M12.6667 12C12.6667 12.1768 12.5965 12.3464 12.4714 12.4714C12.3464 12.5964 12.1769 12.6667 12 12.6667C11.8232 12.6667 11.6537 12.5964 11.5286 12.4714C11.4036 12.3464 11.3334 12.1768 11.3334 12V4.66667C11.3334 4.48986 11.4036 4.32029 11.5286 4.19526C11.6537 4.07024 11.8232 4 12 4C12.1769 4 12.3464 4.07024 12.4714 4.19526C12.5965 4.32029 12.6667 4.48986 12.6667 4.66667V12Z" fill="#EFEFFF"/>
<path id="Vector_4" d="M15.3333 17.774C15.18 17.8623 14.998 17.8861 14.8272 17.8404C14.6564 17.7946 14.5106 17.683 14.422 17.53L11.422 12.3333C11.335 12.1803 11.312 11.999 11.3581 11.8292C11.4043 11.6593 11.5157 11.5145 11.6682 11.4265C11.8206 11.3385 12.0017 11.3143 12.1719 11.3593C12.3421 11.4043 12.4876 11.5148 12.5766 11.6667L15.5766 16.8633C15.6651 17.0164 15.6891 17.1983 15.6435 17.369C15.5979 17.5398 15.4863 17.6855 15.3333 17.774Z" fill="#EFEFFF"/>
</g>
<defs>
<clipPath id="clip0_1_708">
<rect width="24" height="24" fill="white"/>
</clipPath>
</defs>
</svg>
