<svg width="29" height="28" viewBox="0 0 29 28" fill="none" xmlns="http://www.w3.org/2000/svg">
<g id="tacho basura">
<path id="Vector" d="M7.80146 9.33331H21.364L20.5531 22.3125C20.516 22.9049 20.2545 23.4609 19.8219 23.8673C19.3893 24.2737 18.818 24.5 18.2245 24.5H10.9421C10.3486 24.5 9.7773 24.2737 9.34467 23.8673C8.91204 23.4609 8.65056 22.9049 8.61346 22.3125L7.80146 9.33331ZM22.75 5.83331V8.16665H6.41663V5.83331H9.91663V4.66665C9.91663 4.04781 10.1625 3.45432 10.6 3.01673C11.0376 2.57915 11.6311 2.33331 12.25 2.33331H16.9166C17.5355 2.33331 18.129 2.57915 18.5665 3.01673C19.0041 3.45432 19.25 4.04781 19.25 4.66665V5.83331H22.75ZM12.25 5.83331H16.9166V4.66665H12.25V5.83331Z" fill="#EFEFFF"/>
</g>
</svg>
